<svg width="191" height="25" viewBox="0 0 191 25" fill="none" xmlns="http://www.w3.org/2000/svg">
<path d="M22.3958 24.7304L25.8698 21.2565V16.0482L22.3958 12.5794L25.8698 9.10545V3.89712L22.3958 0.423157H0V5.98045H2.60417V24.7304H22.3958ZM20.3125 19.1732H8.16146V15.3554H20.3125V19.1732ZM20.3125 9.79816H8.16146V5.98045H20.3125V9.79816Z" fill="#FF0000"/>
<path d="M54.9301 24.7304L58.4041 21.2565V3.89712L54.9301 0.423157H36.5291L33.0551 3.89712V21.2565L36.5291 24.7304H54.9301ZM52.8468 19.1732H38.6124V5.98045H52.8468V19.1732Z" fill="#FF0000"/>
<path d="M87.4644 24.7304L90.9383 21.2565V3.89712L87.4644 0.423157H69.0633L65.5894 3.89712V21.2565L69.0633 24.7304H87.4644ZM85.381 19.1732H71.1466V5.98045H85.381V19.1732Z" fill="#FF0000"/>
<path d="M104.551 0.423157H96.561V5.98045H99.1652V24.7304H104.722V9.90232C107.222 13.3086 109.722 16.7096 112.259 20.1107C114.759 16.7096 117.29 13.3086 119.827 9.90232V24.7304H125.384V0.423157H119.999C117.394 3.89712 114.827 7.40232 112.259 10.8763L104.551 0.423157Z" fill="#FF0000"/>
<path d="M154.791 24.7304V19.1732H139.166V15.3554H151.317V9.79816H139.166V5.98045H154.791V0.423157H131.005V5.98045H133.609V24.7304H154.791Z" fill="#FF0000"/>
<path d="M181.425 18.8294L184.893 15.3554V3.89712L181.425 0.423157H160.414V5.98045H179.341V13.2721H168.576V7.71482H163.018V24.7304H168.576V18.8294H174.373C176.112 20.8086 177.81 22.7877 179.581 24.7304H186.633C184.862 22.7877 183.159 20.8086 181.425 18.8294Z" fill="#FF0000"/>
<path d="M25.8423 24.3073L29.3163 20.8333V15.625L25.8423 12.1563L29.3163 8.68229V3.47396L25.8423 0H3.44647V5.55729H6.05064V24.3073H25.8423ZM23.759 18.75H11.6079V14.9323H23.759V18.75ZM23.759 9.375H11.6079V5.55729H23.759V9.375Z" fill="#00FFFF"/>
<path d="M58.3765 24.3073L61.8505 20.8333V3.47396L58.3765 0H39.9755L36.5015 3.47396V20.8333L39.9755 24.3073H58.3765ZM56.2932 18.75H42.0588V5.55729H56.2932V18.75Z" fill="#00FFFF"/>
<path d="M90.9108 24.3073L94.3847 20.8333V3.47396L90.9108 0H72.5097L69.0358 3.47396V20.8333L72.5097 24.3073H90.9108ZM88.8274 18.75H74.5931V5.55729H88.8274V18.75Z" fill="#00FFFF"/>
<path d="M107.997 0H100.008V5.55729H102.612V24.3073H108.169V9.47917C110.669 12.8854 113.169 16.2865 115.705 19.6875C118.205 16.2865 120.737 12.8854 123.273 9.47917V24.3073H128.83V0H123.445C120.841 3.47396 118.273 6.97917 115.705 10.4531L107.997 0Z" fill="#00FFFF"/>
<path d="M158.238 24.3073V18.75H142.613V14.9323H154.764V9.375H142.613V5.55729H158.238V0H134.451V5.55729H137.056V24.3073H158.238Z" fill="#00FFFF"/>
<path d="M184.871 18.4063L188.34 14.9323V3.47396L184.871 0H163.861V5.55729H182.788V12.849H172.022V7.29167H166.465V24.3073H172.022V18.4063H177.819C179.559 20.3854 181.257 22.3646 183.028 24.3073H190.08C188.309 22.3646 186.606 20.3854 184.871 18.4063Z" fill="#00FFFF"/>
<path d="M24.119 24.5189L27.593 21.0449V15.8366L24.119 12.3678L27.593 8.89387V3.68554L24.119 0.211578H1.72321V5.76887H4.32737V24.5189H24.119ZM22.0357 18.9616H9.88466V15.1439H22.0357V18.9616ZM22.0357 9.58658H9.88466V5.76887H22.0357V9.58658Z" fill="#88FF55"/>
<path d="M56.6533 24.5189L60.1273 21.0449V3.68554L56.6533 0.211578H38.2523L34.7783 3.68554V21.0449L38.2523 24.5189H56.6533ZM54.57 18.9616H40.3356V5.76887H54.57V18.9616Z" fill="#88FF55"/>
<path d="M89.1875 24.5189L92.6615 21.0449V3.68554L89.1875 0.211578H70.7865L67.3125 3.68554V21.0449L70.7865 24.5189H89.1875ZM87.1042 18.9616H72.8698V5.76887H87.1042V18.9616Z" fill="#88FF55"/>
<path d="M106.274 0.211578H98.2842V5.76887H100.888V24.5189H106.446V9.69075C108.946 13.097 111.446 16.498 113.982 19.8991C116.482 16.498 119.013 13.097 121.55 9.69075V24.5189H127.107V0.211578H121.722C119.118 3.68554 116.55 7.19074 113.982 10.6647L106.274 0.211578Z" fill="#88FF55"/>
<path d="M156.515 24.5189V18.9616H140.89V15.1439H153.041V9.58658H140.89V5.76887H156.515V0.211578H132.728V5.76887H135.332V24.5189H156.515Z" fill="#88FF55"/>
<path d="M183.148 18.6178L186.617 15.1439V3.68554L183.148 0.211578H162.137V5.76887H181.065V13.0605H170.299V7.50325H164.742V24.5189H170.299V18.6178H176.096C177.835 20.597 179.533 22.5762 181.304 24.5189H188.356C186.585 22.5762 184.882 20.597 183.148 18.6178Z" fill="#88FF55"/>
</svg>
